# xmcd
#
# Track frame offsets: 
#        150
#        4065
#        19014
#        36033
#        60142
#        65827
#        80911
#        96577
#        103752
#        117783
#        124988
#        144820
#        157244
#        161867
#        183542
#        197164
#        210370
#        230817
#        254837
#        267199
#        280392
#
# Disc length: 3980 seconds
#
# Revision: 0
# Processed by: cddbd v1.5.2PL0 Copyright (c) Steve Scherf et al.
# Submitted via: ExactAudioCopyFreeDBPlugin 1.0
#
DISCID=3d0f8a15
DTITLE=Blues Power Band - Zee
DYEAR=1900
DGENRE=Blues
TTITLE0=What's Up Buddy? (What's Up Dude ?)
TTITLE1=Got a New Truck
TTITLE2=The Missing
TTITLE3=I wish I Could Find Zee
TTITLE4=What's Up Buddy? (Zee I Miss You So)
TTITLE5=Riding With Jane
TTITLE6=Fortune
TTITLE7=What's Up Buddy? (We Went To Marquee)
TTITLE8=Reviens Zee !
TTITLE9=100° F
TTITLE10=Mississipi Joe
TTITLE11=Noite Doce Em Bahia
TTITLE12=What's Up Buddy? (Cosa I Lé Zi ?)
TTITLE13=Tchoga Zanbil
TTITLE14=Marsquake
TTITLE15=Aftershock
TTITLE16=Below
TTITLE17=The End...
TTITLE18=Back In Town
TTITLE19=Somebody
TTITLE20=Somebody Won't Talk !
EXTD=
EXTT0=
EXTT1=
EXTT2=
EXTT3=
EXTT4=
EXTT5=
EXTT6=
EXTT7=
EXTT8=
EXTT9=
EXTT10=
EXTT11=
EXTT12=
EXTT13=
EXTT14=
EXTT15=
EXTT16=
EXTT17=
EXTT18=
EXTT19=
EXTT20=
PLAYORDER=
